<?xml version="1.0" encoding="utf-8"?>
<!-- Generator: Adobe Illustrator 19.0.0, SVG Export Plug-In . SVG Version: 6.00 Build 0)  -->
<svg version="1.1" id="Layer_1" xmlns="http://www.w3.org/2000/svg" xmlns:xlink="http://www.w3.org/1999/xlink" x="0px" y="0px"
	 width="206px" height="288px" viewBox="0 0 206 288" style="enable-background:new 0 0 206 288;" xml:space="preserve">
<style type="text/css">
	.st0{fill:#3F3F3F;}
</style>
<g id="XMLID_854_">
	<path id="XMLID_75_" class="st0" d="M95,25v46H1V25H95 M96,24H0v48h96V24L96,24z"/>
</g>
<g id="XMLID_853_">
	<path id="XMLID_72_" class="st0" d="M23,129v22H1v-22H23 M24,128H0v24h24V128L24,128z"/>
</g>
<g id="XMLID_852_">
	<path id="XMLID_69_" class="st0" d="M95,1v14H81V1H95 M96,0H80v16h16V0L96,0z"/>
</g>
<g id="XMLID_847_">
	<path id="XMLID_65_" class="st0" d="M95,129v22H33v-22H95 M96,128H32v24h64V128L96,128z"/>
</g>
<g id="XMLID_846_">
	<path id="XMLID_61_" class="st0" d="M95,81v6H1v-6H95 M96,80H0v8h96V80L96,80z"/>
</g>
<g id="XMLID_839_">
	<path id="XMLID_57_" class="st0" d="M43,97v6H1v-6H43 M44,96H0v8h44V96L44,96z"/>
</g>
<g id="XMLID_838_">
	<path id="XMLID_51_" class="st0" d="M95,97v6H53v-6H95 M96,96H52v8h44V96L96,96z"/>
</g>
<g id="XMLID_837_">
	<rect id="XMLID_24_" x="0" y="112" class="st0" width="96" height="1"/>
</g>
<g id="XMLID_836_">
	<rect id="XMLID_23_" x="0" y="119" class="st0" width="96" height="1"/>
</g>
<g id="XMLID_610_">
	<path id="XMLID_6_" class="st0" d="M8.75,13.711l-1.422-3.633H2.75l-1.406,3.633H0L4.516,2.242h1.117l4.492,11.469H8.75z
		 M6.914,8.883L5.586,5.344C5.414,4.896,5.237,4.347,5.055,3.695c-0.115,0.5-0.279,1.05-0.492,1.648L3.219,8.883H6.914z"/>
</g>
<g id="XMLID_831_">
	<path id="XMLID_46_" class="st0" d="M205,73v46h-94V73H205 M206,72h-96v48h96V72L206,72z"/>
</g>
<g id="XMLID_829_">
	<path id="XMLID_42_" class="st0" d="M205,129v22h-22v-22H205 M206,128h-24v24h24V128L206,128z"/>
</g>
<g id="XMLID_800_">
	<path id="XMLID_38_" class="st0" d="M205,1v14h-14V1H205 M206,0h-16v16h16V0L206,0z"/>
</g>
<g id="XMLID_708_">
	<path id="XMLID_34_" class="st0" d="M173,129v22h-62v-22H173 M174,128h-64v24h64V128L174,128z"/>
</g>
<g id="XMLID_611_">
	<path id="XMLID_30_" class="st0" d="M205,25v6h-94v-6H205 M206,24h-96v8h96V24L206,24z"/>
</g>
<g id="XMLID_612_">
	<path id="XMLID_26_" class="st0" d="M153,41v6h-42v-6H153 M154,40h-44v8h44V40L154,40z"/>
</g>
<g id="XMLID_615_">
	<path id="XMLID_40_" class="st0" d="M205,41v6h-42v-6H205 M206,40h-44v8h44V40L206,40z"/>
</g>
<g id="XMLID_616_">
	<rect id="XMLID_18_" x="110" y="56" class="st0" width="96" height="1"/>
</g>
<g id="XMLID_617_">
	<rect id="XMLID_19_" x="110" y="63" class="st0" width="96" height="1"/>
</g>
<g id="XMLID_618_">
	<path id="XMLID_2_" class="st0" d="M111.57,2.289h3.227c1.516,0,2.611,0.227,3.289,0.68c0.677,0.453,1.016,1.169,1.016,2.148
		c0,0.677-0.189,1.235-0.566,1.676c-0.378,0.44-0.929,0.726-1.652,0.855v0.078c1.734,0.297,2.602,1.208,2.602,2.734
		c0,1.021-0.346,1.817-1.035,2.391c-0.69,0.573-1.655,0.859-2.895,0.859h-3.984V2.289z M112.898,7.18h2.188
		c0.938,0,1.611-0.147,2.023-0.441c0.411-0.294,0.617-0.79,0.617-1.488c0-0.641-0.229-1.103-0.688-1.387
		c-0.459-0.284-1.188-0.426-2.188-0.426h-1.953V7.18z M112.898,8.305v4.273h2.383c0.922,0,1.615-0.179,2.082-0.535
		c0.466-0.356,0.699-0.915,0.699-1.676c0-0.708-0.238-1.229-0.715-1.563s-1.202-0.5-2.176-0.5H112.898z"/>
</g>
<g id="XMLID_624_">
	<path id="XMLID_92_" class="st0" d="M103,193c12.682,0,23,10.318,23,23s-10.318,23-23,23s-23-10.318-23-23S90.318,193,103,193
		 M103,192c-13.255,0-24,10.745-24,24s10.745,24,24,24s24-10.745,24-24S116.255,192,103,192L103,192z"/>
</g>
<g id="XMLID_13_">
	<path id="XMLID_54_" class="st0" d="M77.863,247.107C64.147,255.557,55,270.708,55,288h1c0-17.035,9.11-31.98,22.714-40.224
		C78.427,247.556,78.144,247.334,77.863,247.107z"/>
	<path id="XMLID_56_" class="st0" d="M128.137,247.107c-0.28,0.227-0.564,0.449-0.85,0.668C140.89,256.02,150,270.965,150,288h1
		C151,270.708,141.853,255.557,128.137,247.107z"/>
</g>
<rect id="XMLID_625_" x="8" y="136" class="st0" width="8" height="8"/>
<rect id="XMLID_857_" x="190" y="136" class="st0" width="8" height="8"/>
<rect id="XMLID_635_" x="86" y="6" class="st0" width="4" height="4"/>
<rect id="XMLID_636_" x="196" y="6" class="st0" width="4" height="4"/>
</svg>
