<?xml version="1.0" encoding="utf-8"?>
<!-- Generator: Adobe Illustrator 19.0.0, SVG Export Plug-In . SVG Version: 6.00 Build 0)  -->
<svg version="1.1" id="Layer_1" xmlns="http://www.w3.org/2000/svg" xmlns:xlink="http://www.w3.org/1999/xlink" x="0px" y="0px"
	 width="206px" height="288px" viewBox="0 0 206 288" style="enable-background:new 0 0 206 288;" xml:space="preserve">
<style type="text/css">
	.st0{fill:#3F3F3F;}
</style>
<g id="XMLID_510_">
	<path id="XMLID_226_" class="st0" d="M53,1v78H1V1H53 M54,0H0v80h54V0L54,0z"/>
</g>
<g id="XMLID_511_">
	<path id="XMLID_222_" class="st0" d="M129,1v78H77V1H129 M130,0H76v80h54V0L130,0z"/>
</g>
<g id="XMLID_512_">
	<path id="XMLID_218_" class="st0" d="M205,1v78h-52V1H205 M206,0h-54v80h54V0L206,0z"/>
</g>
<g id="XMLID_513_">
	<path id="XMLID_214_" class="st0" d="M53,105v78H1v-78H53 M54,104H0v80h54V104L54,104z"/>
</g>
<g id="XMLID_514_">
	<path id="XMLID_210_" class="st0" d="M129,105v78H77v-78H129 M130,104H76v80h54V104L130,104z"/>
</g>
<g id="XMLID_515_">
	<path id="XMLID_206_" class="st0" d="M205,105v78h-52v-78H205 M206,104h-54v80h54V104L206,104z"/>
</g>
<g id="XMLID_516_">
	<path id="XMLID_202_" class="st0" d="M53,209v78H1v-78H53 M54,208H0v80h54V208L54,208z"/>
</g>
<g id="XMLID_517_">
	<path id="XMLID_198_" class="st0" d="M129,209v78H77v-78H129 M130,208H76v80h54V208L130,208z"/>
</g>
<g id="XMLID_519_">
	<path id="XMLID_194_" class="st0" d="M205,209v78h-52v-78H205 M206,208h-54v80h54V208L206,208z"/>
</g>
<polygon id="XMLID_7_" class="st0" points="68,248 54,248 54,250 68,250 68,253 76,249 68,245 "/>
<polygon id="XMLID_208_" class="st0" points="152,249 144,245 144,248 130,248 130,250 144,250 144,253 "/>
<polygon id="XMLID_5_" class="st0" points="152,143 138,143 138,140 130,144 138,148 138,145 152,145 "/>
<polygon id="XMLID_2_" class="st0" points="76,40 68,36 68,39 54,39 54,41 68,41 68,44 "/>
<polygon id="XMLID_3_" class="st0" points="152,40 144,36 144,39 130,39 130,41 144,41 144,44 "/>
<polygon id="XMLID_4_" class="st0" points="180,96 180,80 178,80 178,96 175,96 179,104 183,96 "/>
<polygon id="XMLID_6_" class="st0" points="76,143 62,143 62,140 54,144 62,148 62,145 76,145 "/>
<polygon id="XMLID_200_" class="st0" points="28,184 26,184 26,200 23,200 27,208 31,200 28,200 "/>
<g id="XMLID_541_">
	<path id="XMLID_190_" class="st0" d="M38,23v2H16v-2H38 M39,22H15v4h24V22L39,22z"/>
</g>
<g id="XMLID_542_">
	<path id="XMLID_182_" class="st0" d="M38,39v2H16v-2H38 M39,38H15v4h24V38L39,38z"/>
</g>
<g id="XMLID_543_">
	<rect id="XMLID_188_" x="15" y="54" class="st0" width="24" height="4"/>
</g>
<g id="XMLID_544_">
	<rect id="XMLID_186_" x="87" y="11" class="st0" width="32" height="4"/>
</g>
<g id="XMLID_545_">
	<path id="XMLID_178_" class="st0" d="M118,20v48H96V20H118 M119,19H95v50h24V19L119,19z"/>
</g>
<g id="XMLID_546_">
	<path id="XMLID_174_" class="st0" d="M90,20v48h-2V20H90 M91,19h-4v50h4V19L91,19z"/>
</g>
<g id="XMLID_547_">
	<path id="XMLID_170_" class="st0" d="M118,116v2H88v-2H118 M119,115H87v4h32V115L119,115z"/>
</g>
<g id="XMLID_550_">
	<path id="XMLID_166_" class="st0" d="M118,166v6H96v-6H118 M119,165H95v8h24V165L119,165z"/>
</g>
<g id="XMLID_551_">
	<path id="XMLID_162_" class="st0" d="M104,124v8h-8v-8H104 M105,123H95v10h10V123L105,123z"/>
</g>
<g id="XMLID_552_">
	<path id="XMLID_158_" class="st0" d="M118,124v8h-8v-8H118 M119,123h-10v10h10V123L119,123z"/>
</g>
<g id="XMLID_553_">
	<path id="XMLID_152_" class="st0" d="M104,138v8h-8v-8H104 M105,137H95v10h10V137L105,137z"/>
</g>
<g id="XMLID_557_">
	<rect id="XMLID_156_" x="109" y="137" class="st0" width="10" height="10"/>
</g>
<g id="XMLID_558_">
	<path id="XMLID_148_" class="st0" d="M104,152v8h-8v-8H104 M105,151H95v10h10V151L105,151z"/>
</g>
<g id="XMLID_559_">
	<path id="XMLID_144_" class="st0" d="M118,152v8h-8v-8H118 M119,151h-10v10h10V151L119,151z"/>
</g>
<g id="XMLID_560_">
	<path id="XMLID_140_" class="st0" d="M90,124v48h-2v-48H90 M91,123h-4v50h4V123L91,123z"/>
</g>
<g id="XMLID_568_">
	<path id="XMLID_136_" class="st0" d="M42,116v2H12v-2H42 M43,115H11v4h32V115L43,115z"/>
</g>
<g id="XMLID_571_">
	<path id="XMLID_132_" class="st0" d="M37,132v2H23v-2H37 M38,131H22v4h16V131L38,131z"/>
</g>
<g id="XMLID_572_">
	<path id="XMLID_126_" class="st0" d="M19,132v2h-2v-2H19 M20,131h-4v4h4V131L20,131z"/>
</g>
<g id="XMLID_580_">
	<rect id="XMLID_130_" x="22" y="141" class="st0" width="16" height="4"/>
</g>
<g id="XMLID_574_">
	<path id="XMLID_122_" class="st0" d="M19,142v2h-2v-2H19 M20,141h-4v4h4V141L20,141z"/>
</g>
<g id="XMLID_673_">
	<path id="XMLID_118_" class="st0" d="M37,152v2H23v-2H37 M38,151H22v4h16V151L38,151z"/>
</g>
<g id="XMLID_599_">
	<path id="XMLID_114_" class="st0" d="M19,152v2h-2v-2H19 M20,151h-4v4h4V151L20,151z"/>
</g>
<g id="XMLID_692_">
	<path id="XMLID_110_" class="st0" d="M37,162v2H23v-2H37 M38,161H22v4h16V161L38,161z"/>
</g>
<g id="XMLID_691_">
	<path id="XMLID_106_" class="st0" d="M19,162v2h-2v-2H19 M20,161h-4v4h4V161L20,161z"/>
</g>
<g id="XMLID_569_">
	<path id="XMLID_102_" class="st0" d="M42,124v48H12v-48H42 M43,123H11v50h32V123L43,123z"/>
</g>
<g id="XMLID_576_">
	<path id="XMLID_98_" class="st0" d="M194,12v2h-30v-2H194 M195,11h-32v4h32V11L195,11z"/>
</g>
<g id="XMLID_577_">
	<path id="XMLID_94_" class="st0" d="M189,25v20h-20V25H189 M190,24h-22v22h22V24L190,24z"/>
</g>
<g id="XMLID_578_">
	<path id="XMLID_90_" class="st0" d="M189,51v2h-20v-2H189 M190,50h-22v4h22V50L190,50z"/>
</g>
<g id="XMLID_579_">
	<path id="XMLID_84_" class="st0" d="M175,59v2h-6v-2H175 M176,58h-8v4h8V58L176,58z"/>
</g>
<g id="XMLID_581_">
	<rect id="XMLID_88_" x="182" y="58" class="st0" width="8" height="4"/>
</g>
<g id="XMLID_582_">
	<path id="XMLID_80_" class="st0" d="M194,20v48h-30V20H194 M195,19h-32v50h32V19L195,19z"/>
</g>
<g id="XMLID_584_">
	<path id="XMLID_76_" class="st0" d="M194,116v2h-18v-2H194 M195,115h-20v4h20V115L195,115z"/>
</g>
<g id="XMLID_585_">
	<path id="XMLID_72_" class="st0" d="M194,162v2h-30v-2H194 M195,161h-32v4h32V161L195,161z"/>
</g>
<g id="XMLID_586_">
	<path id="XMLID_68_" class="st0" d="M182,170v2h-6v-2H182 M183,169h-8v4h8V169L183,169z"/>
</g>
<g id="XMLID_587_">
	<path id="XMLID_60_" class="st0" d="M194,124v2h-30v-2H194 M195,123h-32v4h32V123L195,123z"/>
</g>
<g id="XMLID_588_">
	<path id="XMLID_64_" class="st0" d="M170,170v2h-6v-2H170 M171,169h-8v4h8V169L171,169z"/>
</g>
<g id="XMLID_589_">
	<path id="XMLID_56_" class="st0" d="M194,170v2h-6v-2H194 M195,169h-8v4h8V169L195,169z"/>
</g>
<g id="XMLID_590_">
	<path id="XMLID_50_" class="st0" d="M194,132v24h-30v-24H194 M195,131h-32v26h32V131L195,131z"/>
</g>
<g id="XMLID_591_">
	<rect id="XMLID_54_" x="163" y="115" class="st0" width="8" height="4"/>
</g>
<g id="XMLID_736_">
	<path id="XMLID_45_" class="st0" d="M30,220v2H12v-2H30 M31,219H11v4h20V219L31,219z"/>
</g>
<g id="XMLID_737_">
	<rect id="XMLID_233_" x="35" y="219" class="st0" width="8" height="4"/>
</g>
<g id="XMLID_702_">
	<path id="XMLID_41_" class="st0" d="M42,228v48H12v-48H42 M43,227H11v50h32V227L43,227z"/>
</g>
<rect id="XMLID_703_" x="20" y="236" class="st0" width="14" height="1"/>
<rect id="XMLID_717_" x="20" y="266" class="st0" width="2" height="2"/>
<rect id="XMLID_728_" x="24" y="266" class="st0" width="2" height="2"/>
<rect id="XMLID_738_" x="28" y="266" class="st0" width="2" height="2"/>
<rect id="XMLID_739_" x="32" y="266" class="st0" width="2" height="2"/>
<rect id="XMLID_704_" x="20" y="239" class="st0" width="14" height="1"/>
<rect id="XMLID_711_" x="20" y="245" class="st0" width="14" height="1"/>
<rect id="XMLID_709_" x="20" y="248" class="st0" width="14" height="1"/>
<rect id="XMLID_707_" x="20" y="251" class="st0" width="8" height="1"/>
<rect id="XMLID_716_" x="20" y="254" class="st0" width="14" height="1"/>
<rect id="XMLID_713_" x="20" y="257" class="st0" width="14" height="1"/>
<rect id="XMLID_705_" x="20" y="260" class="st0" width="8" height="1"/>
<rect id="XMLID_706_" x="20" y="242" class="st0" width="8" height="1"/>
<g id="XMLID_742_">
	<path id="XMLID_37_" class="st0" d="M118,220v2H88v-2H118 M119,219H87v4h32V219L119,219z"/>
</g>
<g id="XMLID_710_">
	<path id="XMLID_33_" class="st0" d="M106,228v35H88v-35H106 M107,227H87v37h20V227L107,227z"/>
</g>
<g id="XMLID_745_">
	<path id="XMLID_30_" class="st0" d="M118,228v23h-6v-23H118 M119,227h-8v25h8V227L119,227z"/>
</g>
<g id="XMLID_746_">
	<rect id="XMLID_235_" x="111" y="256" class="st0" width="8" height="8"/>
</g>
<g id="XMLID_744_">
	<path id="XMLID_25_" class="st0" d="M118,270v6H88v-6H118 M119,269H87v8h32V269L119,269z"/>
</g>
<g id="XMLID_750_">
	<path id="XMLID_172_" class="st0" d="M190,232v2h-22v-2H190 M191,231h-24v4h24V231L191,231z"/>
</g>
<g id="XMLID_748_">
	<path id="XMLID_220_" class="st0" d="M190,248v2h-22v-2H190 M191,247h-24v4h24V247L191,247z"/>
</g>
<g id="XMLID_743_">
	<path id="XMLID_231_" class="st0" d="M190,264v2h-22v-2H190 M191,263h-24v4h24V263L191,263z"/>
</g>
</svg>
