<?xml version="1.0" encoding="utf-8"?>
<!-- Generator: Adobe Illustrator 19.0.0, SVG Export Plug-In . SVG Version: 6.00 Build 0)  -->
<svg version="1.1" id="Layer_1" xmlns="http://www.w3.org/2000/svg" xmlns:xlink="http://www.w3.org/1999/xlink" x="0px" y="0px"
	 width="192px" height="192px" viewBox="0 0 192 192" style="enable-background:new 0 0 192 192;" xml:space="preserve">
<style type="text/css">
	.st0{fill:#7F3F1F;}
</style>
<path id="XMLID_299_" class="st0" d="M60,120c6.617,0,12,5.383,12,12s-5.383,12-12,12s-12-5.383-12-12S53.383,120,60,120 M60,116
	c-8.837,0-16,7.163-16,16s7.163,16,16,16s16-7.163,16-16S68.837,116,60,116L60,116z"/>
<path id="XMLID_302_" class="st0" d="M108,148h4v-16c0-8.836-7.163-16-16-16h0c-8.837,0-16,7.163-16,16v16h4v-16
	c0-6.617,5.383-12,12-12c6.617,0,12,5.383,12,12V148z"/>
<path id="XMLID_303_" class="st0" d="M48,44l42,42l-22,22h12l16-16l16,16h12l-22-22l42-42H48z M68,52h56L96,80L68,52z"/>
<path id="XMLID_3_" class="st0" d="M143.3,136c-1.653,4.653-6.087,8-11.3,8c-6.617,0-12-5.383-12-12s5.383-12,12-12
	c5.213,0,9.647,3.347,11.3,8h4.176c-1.779-6.897-8.023-12-15.476-12c-8.837,0-16,7.163-16,16s7.163,16,16,16
	c7.453,0,13.697-5.103,15.476-12H143.3z"/>
</svg>
