<?xml version="1.0" encoding="utf-8"?>
<!-- Generator: Adobe Illustrator 19.0.0, SVG Export Plug-In . SVG Version: 6.00 Build 0)  -->
<svg version="1.1" id="Layer_1" xmlns="http://www.w3.org/2000/svg" xmlns:xlink="http://www.w3.org/1999/xlink" x="0px" y="0px"
	 width="32px" height="32px" viewBox="0 0 32 32" style="enable-background:new 0 0 32 32;" xml:space="preserve">
<style type="text/css">
	.st0{fill:#3F3F3F;}
	.st1{fill:none;stroke:#3F3F3F;stroke-width:2;stroke-miterlimit:10;}
	.st2{fill:#F8F8F8;}
</style>
<g id="XMLID_2040_">
	<path id="XMLID_13_" class="st0" d="M16,3c7.168,0,13,5.832,13,13s-5.832,13-13,13S3,23.168,3,16S8.832,3,16,3 M16,2
		C8.268,2,2,8.268,2,16s6.268,14,14,14s14-6.268,14-14S23.732,2,16,2L16,2z"/>
</g>
<line id="XMLID_2039_" class="st1" x1="2" y1="3" x2="30" y2="3"/>
<circle id="XMLID_2038_" class="st0" cx="2" cy="3" r="2"/>
<circle id="XMLID_2023_" class="st0" cx="30" cy="3" r="2"/>
<circle id="XMLID_2021_" class="st0" cx="16" cy="3" r="3"/>
<circle id="XMLID_2019_" class="st2" cx="16" cy="3" r="2"/>
<circle id="XMLID_2008_" class="st0" cx="16" cy="29" r="3"/>
<circle id="XMLID_2007_" class="st2" cx="16" cy="29" r="2"/>
<circle id="XMLID_2005_" class="st0" cx="29" cy="16" r="3"/>
<circle id="XMLID_2004_" class="st2" cx="29" cy="16" r="2"/>
<circle id="XMLID_1989_" class="st0" cx="3" cy="16" r="3"/>
<circle id="XMLID_1988_" class="st2" cx="3" cy="16" r="2"/>
</svg>
