<?xml version="1.0" encoding="utf-8"?>
<!-- Generator: Adobe Illustrator 19.0.0, SVG Export Plug-In . SVG Version: 6.00 Build 0)  -->
<svg version="1.1" id="Layer_1" xmlns="http://www.w3.org/2000/svg" xmlns:xlink="http://www.w3.org/1999/xlink" x="0px" y="0px"
	 width="32px" height="32px" viewBox="0 0 32 32" style="enable-background:new 0 0 32 32;" xml:space="preserve">
<style type="text/css">
	.st0{fill:#3F3F3F;}
</style>
<path id="XMLID_2_" class="st0" d="M8.921,17.667C3.64,20.281,0,25.709,0,32h1c0-6.096,3.661-11.344,8.894-13.688
	C9.559,18.113,9.234,17.898,8.921,17.667z"/>
<path id="XMLID_4_" class="st0" d="M23.079,17.667c-0.314,0.23-0.638,0.445-0.974,0.645C27.339,20.656,31,25.904,31,32h1
	C32,25.709,28.36,20.281,23.079,17.667z"/>
<g id="XMLID_1461_">
	<path id="XMLID_16_" class="st0" d="M16,1c3.86,0,7,3.14,7,7s-3.14,7-7,7s-7-3.14-7-7S12.14,1,16,1 M16,0c-4.418,0-8,3.582-8,8
		s3.582,8,8,8s8-3.582,8-8S20.418,0,16,0L16,0z"/>
</g>
</svg>
