<?xml version="1.0" encoding="utf-8"?>
<!-- Generator: Adobe Illustrator 19.0.0, SVG Export Plug-In . SVG Version: 6.00 Build 0)  -->
<svg version="1.1" id="Layer_1" xmlns="http://www.w3.org/2000/svg" xmlns:xlink="http://www.w3.org/1999/xlink" x="0px" y="0px"
	 width="832px" height="296px" viewBox="0 0 832 296" style="enable-background:new 0 0 832 296;" xml:space="preserve">
<style type="text/css">
	.st0{fill:#3F3F3F;}
	.st1{fill:#F8F8F8;}
</style>
<rect id="XMLID_4667_" x="64" class="st0" width="2" height="296"/>
<rect id="XMLID_4666_" x="766" class="st0" width="2" height="296"/>
<rect id="XMLID_4665_" x="0" y="64" class="st0" width="832" height="2"/>
<rect id="XMLID_4664_" x="0" y="230" class="st0" width="832" height="2"/>
<g id="XMLID_4663_">
	<path id="XMLID_51_" class="st0" d="M120,76v44H76V76H120 M122,74H74v48h48V74L122,74z"/>
</g>
<rect id="XMLID_4662_" x="90" y="90" class="st0" width="16" height="16"/>
<g id="XMLID_2954_">
	<path id="XMLID_47_" class="st0" d="M120,176v44H76v-44H120 M122,174H74v48h48V174L122,174z"/>
</g>
<rect id="XMLID_2953_" x="90" y="190" class="st0" width="16" height="16"/>
<g id="XMLID_2951_">
	<path id="XMLID_43_" class="st0" d="M756,76v44h-44V76H756 M758,74h-48v48h48V74L758,74z"/>
</g>
<rect id="XMLID_2950_" x="726" y="90" class="st0" width="16" height="16"/>
<g id="XMLID_2942_">
	<path id="XMLID_28_" class="st0" d="M756,176v44h-44v-44H756 M758,174h-48v48h48V174L758,174z"/>
</g>
<rect id="XMLID_2941_" x="726" y="190" class="st0" width="16" height="16"/>
<g id="XMLID_2939_">
	<rect id="XMLID_42_" x="133" y="75" class="st1" width="278" height="146"/>
	<path id="XMLID_39_" class="st0" d="M410,76v144H134V76H410 M412,74H132v148h280V74L412,74z"/>
</g>
<rect id="XMLID_2938_" x="178" y="76" class="st0" width="2" height="144"/>
<rect id="XMLID_2937_" x="364" y="76" class="st0" width="2" height="144"/>
<g id="XMLID_2936_">
	<rect id="XMLID_37_" x="196" y="100" class="st0" width="72" height="8"/>
</g>
<g id="XMLID_2935_">
	<rect id="XMLID_31_" x="196" y="132" class="st0" width="152" height="4"/>
</g>
<g id="XMLID_2934_">
	<rect id="XMLID_32_" x="196" y="152" class="st0" width="152" height="4"/>
</g>
<g id="XMLID_2933_">
	<rect id="XMLID_33_" x="196" y="172" class="st0" width="152" height="4"/>
</g>
<g id="XMLID_2929_">
	<rect id="XMLID_34_" x="196" y="192" class="st0" width="152" height="4"/>
</g>
<g id="XMLID_2926_">
	<rect id="XMLID_46_" x="421" y="75" class="st1" width="278" height="146"/>
	<path id="XMLID_35_" class="st0" d="M698,76v144H422V76H698 M700,74H420v148h280V74L700,74z"/>
</g>
<rect id="XMLID_2925_" x="466" y="76" class="st0" width="2" height="144"/>
<rect id="XMLID_2924_" x="652" y="76" class="st0" width="2" height="144"/>
<g id="XMLID_2923_">
	<rect id="XMLID_50_" x="484" y="100" class="st0" width="72" height="8"/>
</g>
<g id="XMLID_2922_">
	<rect id="XMLID_54_" x="484" y="132" class="st0" width="152" height="4"/>
</g>
<g id="XMLID_2921_">
	<rect id="XMLID_56_" x="484" y="152" class="st0" width="152" height="4"/>
</g>
<g id="XMLID_2920_">
	<rect id="XMLID_57_" x="484" y="172" class="st0" width="152" height="4"/>
</g>
<g id="XMLID_2919_">
	<rect id="XMLID_58_" x="484" y="192" class="st0" width="152" height="4"/>
</g>
</svg>
