<?xml version="1.0" encoding="utf-8"?>
<!-- Generator: Adobe Illustrator 19.0.0, SVG Export Plug-In . SVG Version: 6.00 Build 0)  -->
<svg version="1.1" id="Layer_1" xmlns="http://www.w3.org/2000/svg" xmlns:xlink="http://www.w3.org/1999/xlink" x="0px" y="0px"
	 width="832px" height="296px" viewBox="0 0 832 296" style="enable-background:new 0 0 832 296;" xml:space="preserve">
<style type="text/css">
	.st0{fill:#3F3F3F;}
</style>
<g id="XMLID_2641_">
	<path id="XMLID_73_" class="st0" d="M190,50v92H2V50H190 M192,48H0v96h192V48L192,48z"/>
</g>
<g id="XMLID_2640_">
	<path id="XMLID_70_" class="st0" d="M46,250v44H2v-44H46 M48,248H0v48h48V248L48,248z"/>
</g>
<g id="XMLID_2639_">
	<path id="XMLID_67_" class="st0" d="M190,2v28h-28V2H190 M192,0h-32v32h32V0L192,0z"/>
</g>
<g id="XMLID_2638_">
	<path id="XMLID_63_" class="st0" d="M190,250v44H66v-44H190 M192,248H64v48h128V248L192,248z"/>
</g>
<g id="XMLID_2637_">
	<path id="XMLID_59_" class="st0" d="M190,162v12H2v-12H190 M192,160H0v16h192V160L192,160z"/>
</g>
<g id="XMLID_2636_">
	<path id="XMLID_55_" class="st0" d="M86,194v12H2v-12H86 M88,192H0v16h88V192L88,192z"/>
</g>
<g id="XMLID_2635_">
	<path id="XMLID_51_" class="st0" d="M190,194v12h-84v-12H190 M192,192h-88v16h88V192L192,192z"/>
</g>
<g id="XMLID_2634_">
	<rect id="XMLID_23_" x="0" y="224" class="st0" width="192" height="2"/>
</g>
<g id="XMLID_2633_">
	<rect id="XMLID_22_" x="0" y="230" class="st0" width="192" height="2"/>
</g>
<path id="XMLID_6_" class="st0" d="M17.5,27.422l-2.844-7.266H5.5l-2.813,7.266H0L9.031,4.484h2.234l8.984,22.938H17.5z
	 M13.828,17.766l-2.656-7.078c-0.344-0.896-0.698-1.995-1.063-3.297c-0.229,1-0.558,2.099-0.984,3.297l-2.688,7.078H13.828z"/>
<rect id="XMLID_2631_" x="16" y="264" class="st0" width="16" height="16"/>
<rect id="XMLID_2630_" x="172" y="12" class="st0" width="8" height="8"/>
<g id="XMLID_2628_">
	<path id="XMLID_47_" class="st0" d="M830,138v92H642v-92H830 M832,136H640v96h192V136L832,136z"/>
</g>
<g id="XMLID_2627_">
	<path id="XMLID_43_" class="st0" d="M830,250v44h-44v-44H830 M832,248h-48v48h48V248L832,248z"/>
</g>
<g id="XMLID_2626_">
	<path id="XMLID_39_" class="st0" d="M830,2v28h-28V2H830 M832,0h-32v32h32V0L832,0z"/>
</g>
<g id="XMLID_2625_">
	<path id="XMLID_35_" class="st0" d="M766,250v44H642v-44H766 M768,248H640v48h128V248L768,248z"/>
</g>
<g id="XMLID_2624_">
	<path id="XMLID_32_" class="st0" d="M830,50v12H642V50H830 M832,48H640v16h192V48L832,48z"/>
</g>
<g id="XMLID_2623_">
	<path id="XMLID_31_" class="st0" d="M726,82v12h-84V82H726 M728,80h-88v16h88V80L728,80z"/>
</g>
<g id="XMLID_2622_">
	<path id="XMLID_56_" class="st0" d="M830,82v12h-84V82H830 M832,80h-88v16h88V80L832,80z"/>
</g>
<g id="XMLID_2621_">
	<rect id="XMLID_14_" x="640" y="112" class="st0" width="192" height="2"/>
</g>
<g id="XMLID_2620_">
	<rect id="XMLID_13_" x="640" y="118" class="st0" width="192" height="2"/>
</g>
<path id="XMLID_2_" class="st0" d="M643.141,4.578h6.453c3.031,0,5.224,0.453,6.578,1.359c1.354,0.906,2.031,2.339,2.031,4.297
	c0,1.354-0.378,2.472-1.133,3.352c-0.756,0.88-1.857,1.451-3.305,1.711v0.156c3.469,0.594,5.203,2.417,5.203,5.469
	c0,2.042-0.69,3.636-2.07,4.781c-1.381,1.146-3.311,1.719-5.789,1.719h-7.969V4.578z M645.797,14.359h4.375
	c1.875,0,3.224-0.294,4.047-0.883c0.822-0.588,1.234-1.581,1.234-2.977c0-1.281-0.459-2.206-1.375-2.773
	c-0.917-0.567-2.375-0.852-4.375-0.852h-3.906V14.359z M645.797,16.609v8.547h4.766c1.844,0,3.231-0.356,4.164-1.07
	c0.932-0.713,1.398-1.831,1.398-3.352c0-1.417-0.477-2.458-1.43-3.125c-0.953-0.667-2.404-1-4.352-1H645.797z"/>
<rect id="XMLID_2618_" x="800" y="264" class="st0" width="16" height="16"/>
<rect id="XMLID_2617_" x="812" y="12" class="st0" width="8" height="8"/>
<path id="XMLID_36_" class="st0" d="M466.247,214.19c-0.562,0.455-1.131,0.901-1.705,1.341C491.766,232.015,510,261.917,510,296h2
	C512,261.403,493.696,231.085,466.247,214.19z"/>
<path id="XMLID_44_" class="st0" d="M365.753,214.19C338.304,231.085,320,261.403,320,296h2c0-34.083,18.234-63.985,45.459-80.469
	C366.884,215.091,366.315,214.645,365.753,214.19z"/>
<g id="XMLID_2609_">
	<path id="XMLID_84_" class="st0" d="M416,106c25.364,0,46,20.636,46,46s-20.636,46-46,46s-46-20.636-46-46S390.636,106,416,106
		 M416,104c-26.51,0-48,21.49-48,48s21.49,48,48,48s48-21.49,48-48S442.51,104,416,104L416,104z"/>
</g>
</svg>
