<?xml version="1.0" encoding="utf-8"?>
<!-- Generator: Adobe Illustrator 19.0.0, SVG Export Plug-In . SVG Version: 6.00 Build 0)  -->
<svg version="1.1" id="Layer_1" xmlns="http://www.w3.org/2000/svg" xmlns:xlink="http://www.w3.org/1999/xlink" x="0px" y="0px"
	 width="832px" height="296px" viewBox="0 0 832 296" style="enable-background:new 0 0 832 296;" xml:space="preserve">
<style type="text/css">
	.st0{fill:#9F1F1F;}
	.st1{fill:#3F7F3F;}
	.st2{fill:#BF7F1F;}
	.st3{fill:#3F3F3F;}
	.st4{fill:#1F3F7F;}
	.st5{fill:#7F3F1F;}
</style>
<rect id="XMLID_3353_" x="800" y="264" class="st0" width="32" height="32"/>
<rect id="XMLID_3352_" x="736" y="264" class="st1" width="32" height="32"/>
<rect id="XMLID_3351_" x="800" y="200" class="st2" width="32" height="32"/>
<rect id="XMLID_3349_" x="0" y="264" class="st3" width="32" height="32"/>
<rect id="XMLID_3348_" x="0" y="200" class="st4" width="32" height="32"/>
<rect id="XMLID_3347_" x="64" y="264" class="st5" width="32" height="32"/>
<path id="XMLID_3337_" class="st3" d="M344,240c13.234,0,24,10.766,24,24s-10.766,24-24,24s-24-10.766-24-24S330.766,240,344,240
	 M344,232c-17.673,0-32,14.327-32,32s14.327,32,32,32s32-14.327,32-32S361.673,232,344,232L344,232z"/>
<path id="XMLID_3332_" class="st3" d="M440,296h8v-32c0-17.673-14.327-32-32-32h0c-17.673,0-32,14.327-32,32v32h8v-32
	c0-13.234,10.766-24,24-24c13.233,0,24,10.766,24,24V296z"/>
<path id="XMLID_3129_" class="st3" d="M320,88l84,84l-44,44h24l32-32l32,32h24l-44-44l84-84H320z M360,104h112l-56,56L360,104z"/>
<path id="XMLID_3_" class="st3" d="M510.624,272c-3.302,9.311-12.195,16-22.624,16c-13.234,0-24-10.766-24-24s10.766-24,24-24
	c10.429,0,19.321,6.689,22.624,16h8.368c-3.552-13.802-16.081-24-30.992-24c-17.673,0-32,14.327-32,32s14.327,32,32,32
	c14.911,0,27.44-10.198,30.992-24H510.624z"/>
</svg>
