<?xml version="1.0" encoding="utf-8"?>
<!-- Generator: Adobe Illustrator 19.0.0, SVG Export Plug-In . SVG Version: 6.00 Build 0)  -->
<svg version="1.1" id="Layer_1" xmlns="http://www.w3.org/2000/svg" xmlns:xlink="http://www.w3.org/1999/xlink" x="0px" y="0px"
	 width="832px" height="296px" viewBox="0 0 832 296" style="enable-background:new 0 0 832 296;" xml:space="preserve">
<style type="text/css">
	.st0{fill:#F8F8F8;}
	.st1{fill:#3F3F3F;}
</style>
<g id="XMLID_6208_">
	<rect id="XMLID_195_" x="1" y="1" class="st0" width="170" height="122"/>
	<path id="XMLID_191_" class="st1" d="M170,2v120H2V2H170 M172,0H0v124h172V0L172,0z"/>
</g>
<g id="XMLID_6207_">
	<rect id="XMLID_190_" x="221" y="1" class="st0" width="170" height="122"/>
	<path id="XMLID_186_" class="st1" d="M390,2v120H222V2H390 M392,0H220v124h172V0L392,0z"/>
</g>
<g id="XMLID_6206_">
	<rect id="XMLID_185_" x="441" y="1" class="st0" width="170" height="122"/>
	<path id="XMLID_181_" class="st1" d="M610,2v120H442V2H610 M612,0H440v124h172V0L612,0z"/>
</g>
<g id="XMLID_6205_">
	<rect id="XMLID_180_" x="661" y="1" class="st0" width="170" height="122"/>
	<path id="XMLID_176_" class="st1" d="M830,2v120H662V2H830 M832,0H660v124h172V0L832,0z"/>
</g>
<g id="XMLID_6204_">
	<rect id="XMLID_175_" x="1" y="173" class="st0" width="170" height="122"/>
	<path id="XMLID_171_" class="st1" d="M170,174v120H2V174H170 M172,172H0v124h172V172L172,172z"/>
</g>
<g id="XMLID_6203_">
	<rect id="XMLID_170_" x="221" y="173" class="st0" width="170" height="122"/>
	<path id="XMLID_166_" class="st1" d="M390,174v120H222V174H390 M392,172H220v124h172V172L392,172z"/>
</g>
<g id="XMLID_6201_">
	<rect id="XMLID_165_" x="441" y="173" class="st0" width="170" height="122"/>
	<path id="XMLID_161_" class="st1" d="M610,174v120H442V174H610 M612,172H440v124h172V172L612,172z"/>
</g>
<g id="XMLID_6198_">
	<rect id="XMLID_160_" x="661" y="173" class="st0" width="170" height="122"/>
	<path id="XMLID_156_" class="st1" d="M830,174v120H662V174H830 M832,172H660v124h172V172L832,172z"/>
</g>
<polygon id="XMLID_2_" class="st1" points="204,60 172,60 172,64 204,64 204,70 220,62 204,54 "/>
<polygon id="XMLID_203_" class="st1" points="424,60 392,60 392,64 424,64 424,70 440,62 424,54 "/>
<polygon id="XMLID_204_" class="st1" points="644,60 612,60 612,64 644,64 644,70 660,62 644,54 "/>
<polygon id="XMLID_205_" class="st1" points="628,226 612,234 628,242 628,236 660,236 660,232 628,232 "/>
<polygon id="XMLID_206_" class="st1" points="408,226 392,234 408,242 408,236 440,236 440,232 408,232 "/>
<polygon id="XMLID_207_" class="st1" points="188,226 172,234 188,242 188,236 220,236 220,232 188,232 "/>
<polygon id="XMLID_208_" class="st1" points="748,156 748,124 744,124 744,156 738,156 746,172 754,156 "/>
<g id="XMLID_6175_">
	<path id="XMLID_152_" class="st1" d="M108,28v4H64v-4H108 M110,26H62v8h48V26L110,26z"/>
</g>
<g id="XMLID_6174_">
	<path id="XMLID_146_" class="st1" d="M108,60v4H64v-4H108 M110,58H62v8h48V58L110,58z"/>
</g>
<g id="XMLID_6173_">
	<rect id="XMLID_150_" x="62" y="90" class="st1" width="48" height="8"/>
</g>
<g id="XMLID_6171_">
	<path id="XMLID_142_" class="st1" d="M108,200v4H64v-4H108 M110,198H62v8h48V198L110,198z"/>
</g>
<g id="XMLID_6170_">
	<path id="XMLID_138_" class="st1" d="M108,232v4H64v-4H108 M110,230H62v8h48V230L110,230z"/>
</g>
<g id="XMLID_6169_">
	<path id="XMLID_132_" class="st1" d="M108,264v4H64v-4H108 M110,262H62v8h48V262L110,262z"/>
</g>
<g id="XMLID_6097_">
	<rect id="XMLID_136_" x="274" y="14" class="st1" width="64" height="8"/>
</g>
<g id="XMLID_6096_">
	<path id="XMLID_128_" class="st1" d="M336,32v76h-44V32H336 M338,30h-48v80h48V30L338,30z"/>
</g>
<g id="XMLID_6095_">
	<path id="XMLID_124_" class="st1" d="M280,32v76h-4V32H280 M282,30h-8v80h8V30L282,30z"/>
</g>
<g id="XMLID_6093_">
	<path id="XMLID_120_" class="st1" d="M556,16v4h-60v-4H556 M558,14h-64v8h64V14L558,14z"/>
</g>
<g id="XMLID_6091_">
	<path id="XMLID_116_" class="st1" d="M546,42v40h-40V42H546 M548,40h-44v44h44V40L548,40z"/>
</g>
<g id="XMLID_6088_">
	<path id="XMLID_110_" class="st1" d="M518,94v4h-12v-4H518 M520,92h-16v8h16V92L520,92z"/>
</g>
<g id="XMLID_6079_">
	<rect id="XMLID_114_" x="532" y="92" class="st1" width="16" height="8"/>
</g>
<g id="XMLID_6075_">
	<path id="XMLID_106_" class="st1" d="M556,32v76h-60V32H556 M558,30h-64v80h64V30L558,30z"/>
</g>
<g id="XMLID_6072_">
	<path id="XMLID_102_" class="st1" d="M776,16v4h-36v-4H776 M778,14h-40v8h40V14L778,14z"/>
</g>
<g id="XMLID_6070_">
	<path id="XMLID_98_" class="st1" d="M752,104v4h-12v-4H752 M754,102h-16v8h16V102L754,102z"/>
</g>
<g id="XMLID_6066_">
	<path id="XMLID_90_" class="st1" d="M776,32v4h-60v-4H776 M778,30h-64v8h64V30L778,30z"/>
</g>
<g id="XMLID_6065_">
	<path id="XMLID_94_" class="st1" d="M728,104v4h-12v-4H728 M730,102h-16v8h16V102L730,102z"/>
</g>
<g id="XMLID_6064_">
	<path id="XMLID_86_" class="st1" d="M776,104v4h-12v-4H776 M778,102h-16v8h16V102L778,102z"/>
</g>
<g id="XMLID_6063_">
	<path id="XMLID_80_" class="st1" d="M776,48v44h-60V48H776 M778,46h-64v48h64V46L778,46z"/>
</g>
<g id="XMLID_6061_">
	<rect id="XMLID_84_" x="714" y="14" class="st1" width="16" height="8"/>
</g>
<g id="XMLID_6056_">
	<path id="XMLID_76_" class="st1" d="M776,188v4h-60v-4H776 M778,186h-64v8h64V186L778,186z"/>
</g>
<g id="XMLID_6055_">
	<path id="XMLID_72_" class="st1" d="M776,276v4h-44v-4H776 M778,274h-48v8h48V274L778,274z"/>
</g>
<g id="XMLID_6054_">
	<path id="XMLID_68_" class="st1" d="M776,260v4h-44v-4H776 M778,258h-48v8h48V258L778,258z"/>
</g>
<g id="XMLID_6053_">
	<path id="XMLID_64_" class="st1" d="M748,204v16h-16v-16H748 M750,202h-20v20h20V202L750,202z"/>
</g>
<g id="XMLID_6045_">
	<path id="XMLID_60_" class="st1" d="M776,204v16h-16v-16H776 M778,202h-20v20h20V202L778,202z"/>
</g>
<g id="XMLID_6043_">
	<path id="XMLID_54_" class="st1" d="M748,232v16h-16v-16H748 M750,230h-20v20h20V230L750,230z"/>
</g>
<g id="XMLID_6041_">
	<rect id="XMLID_58_" x="758" y="230" class="st1" width="20" height="20"/>
</g>
<g id="XMLID_6040_">
	<path id="XMLID_50_" class="st1" d="M720,204v76h-4v-76H720 M722,202h-8v80h8V202L722,202z"/>
</g>
<g id="XMLID_6038_">
	<path id="XMLID_46_" class="st1" d="M556,188v4h-60v-4H556 M558,186h-64v8h64V186L558,186z"/>
</g>
<g id="XMLID_6037_">
	<path id="XMLID_42_" class="st1" d="M546,220v4h-28v-4H546 M548,218h-32v8h32V218L548,218z"/>
</g>
<g id="XMLID_6033_">
	<path id="XMLID_37_" class="st1" d="M510,220v4h-4v-4H510 M512,218h-8v8h8V218L512,218z"/>
</g>
<g id="XMLID_6030_">
	<rect id="XMLID_197_" x="516" y="238" class="st1" width="32" height="8"/>
</g>
<g id="XMLID_6014_">
	<path id="XMLID_33_" class="st1" d="M510,240v4h-4v-4H510 M512,238h-8v8h8V238L512,238z"/>
</g>
<g id="XMLID_5976_">
	<path id="XMLID_29_" class="st1" d="M546,260v4h-28v-4H546 M548,258h-32v8h32V258L548,258z"/>
</g>
<g id="XMLID_5975_">
	<path id="XMLID_25_" class="st1" d="M510,260v4h-4v-4H510 M512,258h-8v8h8V258L512,258z"/>
</g>
<g id="XMLID_5972_">
	<path id="XMLID_70_" class="st1" d="M556,204v76h-60v-76H556 M558,202h-64v80h64V202L558,202z"/>
</g>
<g id="XMLID_5952_">
	<rect id="XMLID_198_" x="274" y="186" class="st1" width="40" height="8"/>
</g>
<g id="XMLID_5951_">
	<path id="XMLID_168_" class="st1" d="M336,188v4h-12v-4H336 M338,186h-16v8h16V186L338,186z"/>
</g>
<g id="XMLID_5949_">
	<path id="XMLID_183_" class="st1" d="M336,204v76h-60v-76H336 M338,202h-64v80h64V202L338,202z"/>
</g>
<rect id="XMLID_5947_" x="292" y="220" class="st1" width="28" height="2"/>
<rect id="XMLID_5946_" x="292" y="226" class="st1" width="28" height="2"/>
<rect id="XMLID_5945_" x="292" y="238" class="st1" width="28" height="2"/>
<rect id="XMLID_5944_" x="292" y="244" class="st1" width="28" height="2"/>
<rect id="XMLID_5943_" x="292" y="250" class="st1" width="16" height="2"/>
<rect id="XMLID_5942_" x="292" y="256" class="st1" width="28" height="2"/>
<rect id="XMLID_5941_" x="292" y="262" class="st1" width="28" height="2"/>
<rect id="XMLID_5940_" x="292" y="232" class="st1" width="16" height="2"/>
</svg>
