<?xml version="1.0" encoding="utf-8"?>
<!-- Generator: Adobe Illustrator 19.0.0, SVG Export Plug-In . SVG Version: 6.00 Build 0)  -->
<svg version="1.1" id="Layer_1" xmlns="http://www.w3.org/2000/svg" xmlns:xlink="http://www.w3.org/1999/xlink" x="0px" y="0px"
	 width="64px" height="64px" viewBox="0 0 64 64" style="enable-background:new 0 0 64 64;" xml:space="preserve">
<style type="text/css">
	.st0{fill:#3F3F3F;}
</style>
<g id="XMLID_1_">
	<path id="XMLID_2_" class="st0" d="M46.208,35.327c-0.629,0.464-1.282,0.897-1.957,1.299C54.701,41.322,62,51.821,62,64h2
		C64,51.432,56.751,40.561,46.208,35.327z"/>
	<path id="XMLID_4_" class="st0" d="M17.792,35.327C7.249,40.561,0,51.432,0,64h2c0-12.179,7.299-22.678,17.748-27.374
		C19.074,36.224,18.421,35.791,17.792,35.327z"/>
</g>
<g id="XMLID_730_">
	<path id="XMLID_16_" class="st0" d="M32,2c7.72,0,14,6.28,14,14s-6.28,14-14,14s-14-6.28-14-14S24.28,2,32,2 M32,0
		c-8.837,0-16,7.163-16,16s7.163,16,16,16s16-7.163,16-16S40.837,0,32,0L32,0z"/>
</g>
</svg>
