<?xml version="1.0" encoding="utf-8"?>
<!-- Generator: Adobe Illustrator 19.0.0, SVG Export Plug-In . SVG Version: 6.00 Build 0)  -->
<svg version="1.1" id="Layer_1" xmlns="http://www.w3.org/2000/svg" xmlns:xlink="http://www.w3.org/1999/xlink" x="0px" y="0px"
	 width="416px" height="148px" viewBox="0 0 416 148" style="enable-background:new 0 0 416 148;" xml:space="preserve">
<style type="text/css">
	.st0{fill:#3F3F3F;}
</style>
<rect id="XMLID_3167_" x="32" class="st0" width="1" height="148"/>
<rect id="XMLID_3166_" x="383" class="st0" width="1" height="148"/>
<rect id="XMLID_3165_" y="32" class="st0" width="416" height="1"/>
<rect id="XMLID_3164_" y="115" class="st0" width="416" height="1"/>
<g id="XMLID_3163_">
	<path id="XMLID_52_" class="st0" d="M60,38v22H38V38H60 M61,37H37v24h24V37L61,37z"/>
</g>
<rect id="XMLID_3162_" x="45" y="45" class="st0" width="8" height="8"/>
<g id="XMLID_3160_">
	<path id="XMLID_48_" class="st0" d="M60,88v22H38V88H60 M61,87H37v24h24V87L61,87z"/>
</g>
<rect id="XMLID_3159_" x="45" y="95" class="st0" width="8" height="8"/>
<g id="XMLID_3157_">
	<path id="XMLID_44_" class="st0" d="M378,38v22h-22V38H378 M379,37h-24v24h24V37L379,37z"/>
</g>
<rect id="XMLID_3156_" x="363" y="45" class="st0" width="8" height="8"/>
<g id="XMLID_3154_">
	<path id="XMLID_36_" class="st0" d="M378,88v22h-22V88H378 M379,87h-24v24h24V87L379,87z"/>
</g>
<rect id="XMLID_3153_" x="363" y="95" class="st0" width="8" height="8"/>
<g id="XMLID_3151_">
	<path id="XMLID_46_" class="st0" d="M205,38v72H67V38H205 M206,37H66v74h140V37L206,37z"/>
</g>
<rect id="XMLID_3150_" x="89" y="38" class="st0" width="1" height="72"/>
<rect id="XMLID_3149_" x="182" y="38" class="st0" width="1" height="72"/>
<g id="XMLID_3148_">
	<rect id="XMLID_38_" x="98" y="50" class="st0" width="36" height="4"/>
</g>
<g id="XMLID_3147_">
	<rect id="XMLID_23_" x="98" y="66" class="st0" width="76" height="2"/>
</g>
<g id="XMLID_3146_">
	<rect id="XMLID_22_" x="98" y="76" class="st0" width="76" height="2"/>
</g>
<g id="XMLID_3145_">
	<rect id="XMLID_20_" x="98" y="86" class="st0" width="76" height="2"/>
</g>
<g id="XMLID_3144_">
	<rect id="XMLID_19_" x="98" y="96" class="st0" width="76" height="2"/>
</g>
<g id="XMLID_3135_">
	<path id="XMLID_39_" class="st0" d="M349,38v72H211V38H349 M350,37H210v74h140V37L350,37z"/>
</g>
<rect id="XMLID_3133_" x="233" y="38" class="st0" width="1" height="72"/>
<rect id="XMLID_3132_" x="326" y="38" class="st0" width="1" height="72"/>
<g id="XMLID_3130_">
	<rect id="XMLID_58_" x="242" y="50" class="st0" width="36" height="4"/>
</g>
<g id="XMLID_3009_">
	<rect id="XMLID_21_" x="242" y="66" class="st0" width="76" height="2"/>
</g>
<g id="XMLID_2971_">
	<rect id="XMLID_25_" x="242" y="76" class="st0" width="76" height="2"/>
</g>
<g id="XMLID_2960_">
	<rect id="XMLID_30_" x="242" y="86" class="st0" width="76" height="2"/>
</g>
<g id="XMLID_1603_">
	<rect id="XMLID_32_" x="242" y="96" class="st0" width="76" height="2"/>
</g>
</svg>
