<?xml version="1.0" encoding="utf-8"?>
<!-- Generator: Adobe Illustrator 19.0.0, SVG Export Plug-In . SVG Version: 6.00 Build 0)  -->
<svg version="1.1" id="Layer_1" xmlns="http://www.w3.org/2000/svg" xmlns:xlink="http://www.w3.org/1999/xlink" x="0px" y="0px"
	 width="416px" height="148px" viewBox="0 0 416 148" style="enable-background:new 0 0 416 148;" xml:space="preserve">
<style type="text/css">
	.st0{fill:#3F3F3F;}
</style>
<g id="XMLID_3268_">
	<path id="XMLID_74_" class="st0" d="M95,25v46H1V25H95 M96,24H0v48h96V24L96,24z"/>
</g>
<g id="XMLID_3267_">
	<path id="XMLID_71_" class="st0" d="M23,125v22H1v-22H23 M24,124H0v24h24V124L24,124z"/>
</g>
<g id="XMLID_3265_">
	<path id="XMLID_68_" class="st0" d="M95,1v14H81V1H95 M96,0H80v16h16V0L96,0z"/>
</g>
<g id="XMLID_3264_">
	<path id="XMLID_65_" class="st0" d="M95,125v22H33v-22H95 M96,124H32v24h64V124L96,124z"/>
</g>
<g id="XMLID_3263_">
	<path id="XMLID_61_" class="st0" d="M95,81v6H1v-6H95 M96,80H0v8h96V80L96,80z"/>
</g>
<g id="XMLID_3262_">
	<path id="XMLID_57_" class="st0" d="M43,97v6H1v-6H43 M44,96H0v8h44V96L44,96z"/>
</g>
<g id="XMLID_2772_">
	<path id="XMLID_51_" class="st0" d="M95,97v6H53v-6H95 M96,96H52v8h44V96L96,96z"/>
</g>
<g id="XMLID_2757_">
	<rect id="XMLID_24_" x="0" y="112" class="st0" width="96" height="1"/>
</g>
<g id="XMLID_3275_">
	<rect id="XMLID_23_" x="0" y="115" class="st0" width="96" height="1"/>
</g>
<path id="XMLID_13_" class="st0" d="M8.75,13.711l-1.422-3.633H2.75l-1.406,3.633H0L4.516,2.242h1.117l4.492,11.469H8.75z
	 M6.914,8.883L5.586,5.344C5.414,4.896,5.237,4.347,5.055,3.695c-0.115,0.5-0.279,1.05-0.492,1.648L3.219,8.883H6.914z"/>
<rect id="XMLID_1618_" x="8" y="132" class="st0" width="8" height="8"/>
<rect id="XMLID_1555_" x="86" y="6" class="st0" width="4" height="4"/>
<g id="XMLID_3325_">
	<path id="XMLID_46_" class="st0" d="M415,69v46h-94V69H415 M416,68h-96v48h96V68L416,68z"/>
</g>
<g id="XMLID_3324_">
	<path id="XMLID_42_" class="st0" d="M415,125v22h-22v-22H415 M416,124h-24v24h24V124L416,124z"/>
</g>
<g id="XMLID_3323_">
	<path id="XMLID_38_" class="st0" d="M415,1v14h-14V1H415 M416,0h-16v16h16V0L416,0z"/>
</g>
<g id="XMLID_3322_">
	<path id="XMLID_34_" class="st0" d="M383,125v22h-62v-22H383 M384,124h-64v24h64V124L384,124z"/>
</g>
<g id="XMLID_3318_">
	<path id="XMLID_30_" class="st0" d="M415,25v6h-94v-6H415 M416,24h-96v8h96V24L416,24z"/>
</g>
<g id="XMLID_3314_">
	<path id="XMLID_26_" class="st0" d="M363,41v6h-42v-6H363 M364,40h-44v8h44V40L364,40z"/>
</g>
<g id="XMLID_3310_">
	<path id="XMLID_40_" class="st0" d="M415,41v6h-42v-6H415 M416,40h-44v8h44V40L416,40z"/>
</g>
<g id="XMLID_3287_">
	<rect id="XMLID_18_" x="320" y="56" class="st0" width="96" height="1"/>
</g>
<g id="XMLID_3286_">
	<rect id="XMLID_19_" x="320" y="59" class="st0" width="96" height="1"/>
</g>
<path id="XMLID_3_" class="st0" d="M321.57,2.289h3.227c1.516,0,2.611,0.227,3.289,0.68c0.677,0.453,1.016,1.169,1.016,2.148
	c0,0.677-0.189,1.235-0.566,1.676c-0.378,0.44-0.929,0.726-1.652,0.855v0.078c1.734,0.297,2.602,1.208,2.602,2.734
	c0,1.021-0.346,1.817-1.035,2.391c-0.69,0.573-1.655,0.859-2.895,0.859h-3.984V2.289z M322.898,7.18h2.188
	c0.938,0,1.611-0.147,2.023-0.441c0.411-0.294,0.617-0.79,0.617-1.488c0-0.641-0.229-1.103-0.688-1.387
	c-0.459-0.284-1.188-0.426-2.188-0.426h-1.953V7.18z M322.898,8.305v4.273h2.383c0.922,0,1.615-0.179,2.082-0.535
	c0.466-0.356,0.699-0.915,0.699-1.676c0-0.708-0.238-1.229-0.715-1.563s-1.202-0.5-2.176-0.5H322.898z"/>
<rect id="XMLID_3283_" x="400" y="132" class="st0" width="8" height="8"/>
<rect id="XMLID_3282_" x="406" y="6" class="st0" width="4" height="4"/>
<path id="XMLID_2_" class="st0" d="M182.879,107.097C169.154,115.545,160,130.701,160,148h1c0-17.041,9.118-31.992,22.73-40.234
	C183.444,107.547,183.16,107.324,182.879,107.097z"/>
<path id="XMLID_4_" class="st0" d="M233.121,107.097c-0.28,0.227-0.564,0.45-0.851,0.669C245.882,116.008,255,130.959,255,148h1
	C256,130.701,246.846,115.545,233.121,107.097z"/>
<g id="XMLID_665_">
	<path id="XMLID_56_" class="st0" d="M208,53c12.682,0,23,10.318,23,23s-10.318,23-23,23s-23-10.318-23-23S195.318,53,208,53
		 M208,52c-13.255,0-24,10.745-24,24s10.745,24,24,24s24-10.745,24-24S221.255,52,208,52L208,52z"/>
</g>
</svg>
