<?xml version="1.0" encoding="utf-8"?>
<!-- Generator: Adobe Illustrator 19.0.0, SVG Export Plug-In . SVG Version: 6.00 Build 0)  -->
<svg version="1.1" id="Layer_1" xmlns="http://www.w3.org/2000/svg" xmlns:xlink="http://www.w3.org/1999/xlink" x="0px" y="0px"
	 width="416px" height="148px" viewBox="0 0 416 148" style="enable-background:new 0 0 416 148;" xml:space="preserve">
<style type="text/css">
	.st0{fill:#9F1F1F;}
	.st1{fill:#3F7F3F;}
	.st2{fill:#BF7F1F;}
	.st3{fill:#3F3F3F;}
	.st4{fill:#1F3F7F;}
	.st5{fill:#7F3F1F;}
</style>
<rect id="XMLID_1478_" x="400" y="132" class="st0" width="16" height="16"/>
<rect id="XMLID_1477_" x="368" y="132" class="st1" width="16" height="16"/>
<rect id="XMLID_1454_" x="400" y="100" class="st2" width="16" height="16"/>
<rect id="XMLID_1479_" x="0" y="132" class="st3" width="16" height="16"/>
<rect id="XMLID_1459_" x="0" y="100" class="st4" width="16" height="16"/>
<rect id="XMLID_1187_" x="32" y="132" class="st5" width="16" height="16"/>
<path id="XMLID_1642_" class="st3" d="M172,120c6.617,0,12,5.383,12,12s-5.383,12-12,12s-12-5.383-12-12S165.383,120,172,120
	 M172,116c-8.837,0-16,7.163-16,16s7.163,16,16,16s16-7.163,16-16S180.837,116,172,116L172,116z"/>
<path id="XMLID_1641_" class="st3" d="M220,148h4v-16c0-8.836-7.163-16-16-16h0c-8.837,0-16,7.163-16,16v16h4v-16
	c0-6.617,5.383-12,12-12c6.617,0,12,5.383,12,12V148z"/>
<path id="XMLID_1631_" class="st3" d="M160,44l42,42l-22,22h12l16-16l16,16h12l-22-22l42-42H160z M180,52h56l-28,28L180,52z"/>
<path id="XMLID_3_" class="st3" d="M255.3,136c-1.653,4.653-6.087,8-11.3,8c-6.617,0-12-5.383-12-12s5.383-12,12-12
	c5.213,0,9.647,3.347,11.3,8h4.176c-1.779-6.897-8.023-12-15.476-12c-8.837,0-16,7.163-16,16s7.163,16,16,16
	c7.453,0,13.697-5.103,15.476-12H255.3z"/>
</svg>
