<?xml version="1.0" encoding="utf-8"?>
<!-- Generator: Adobe Illustrator 19.0.0, SVG Export Plug-In . SVG Version: 6.00 Build 0)  -->
<svg version="1.1" id="Layer_1" xmlns="http://www.w3.org/2000/svg" xmlns:xlink="http://www.w3.org/1999/xlink" x="0px" y="0px"
	 width="416px" height="148px" viewBox="0 0 416 148" style="enable-background:new 0 0 416 148;" xml:space="preserve">
<style type="text/css">
	.st0{fill:#3F3F3F;}
</style>
<g id="XMLID_1139_">
	<path id="XMLID_188_" class="st0" d="M85,1v60H1V1H85 M86,0H0v62h86V0L86,0z"/>
</g>
<g id="XMLID_1138_">
	<path id="XMLID_184_" class="st0" d="M195,1v60h-84V1H195 M196,0h-86v62h86V0L196,0z"/>
</g>
<g id="XMLID_1133_">
	<path id="XMLID_180_" class="st0" d="M305,1v60h-84V1H305 M306,0h-86v62h86V0L306,0z"/>
</g>
<g id="XMLID_1132_">
	<path id="XMLID_176_" class="st0" d="M415,1v60h-84V1H415 M416,0h-86v62h86V0L416,0z"/>
</g>
<g id="XMLID_1129_">
	<path id="XMLID_172_" class="st0" d="M85,87v60H1V87H85 M86,86H0v62h86V86L86,86z"/>
</g>
<g id="XMLID_1128_">
	<path id="XMLID_168_" class="st0" d="M195,87v60h-84V87H195 M196,86h-86v62h86V86L196,86z"/>
</g>
<g id="XMLID_1122_">
	<path id="XMLID_164_" class="st0" d="M305,87v60h-84V87H305 M306,86h-86v62h86V86L306,86z"/>
</g>
<g id="XMLID_1117_">
	<path id="XMLID_160_" class="st0" d="M415,87v60h-84V87H415 M416,86h-86v62h86V86L416,86z"/>
</g>
<polygon id="XMLID_2_" class="st0" points="102,30 86,30 86,32 102,32 102,35 110,31 102,27 "/>
<polygon id="XMLID_203_" class="st0" points="212,30 196,30 196,32 212,32 212,35 220,31 212,27 "/>
<polygon id="XMLID_204_" class="st0" points="322,30 306,30 306,32 322,32 322,35 330,31 322,27 "/>
<polygon id="XMLID_205_" class="st0" points="314,113 306,117 314,121 314,118 330,118 330,116 314,116 "/>
<polygon id="XMLID_206_" class="st0" points="204,113 196,117 204,121 204,118 220,118 220,116 204,116 "/>
<polygon id="XMLID_207_" class="st0" points="94,113 86,117 94,121 94,118 110,118 110,116 94,116 "/>
<polygon id="XMLID_208_" class="st0" points="374,78 374,62 372,62 372,78 369,78 373,86 377,78 "/>
<g id="XMLID_1095_">
	<path id="XMLID_156_" class="st0" d="M54,14v2H32v-2H54 M55,13H31v4h24V13L55,13z"/>
</g>
<g id="XMLID_1094_">
	<path id="XMLID_152_" class="st0" d="M54,30v2H32v-2H54 M55,29H31v4h24V29L55,29z"/>
</g>
<g id="XMLID_1093_">
	<rect id="XMLID_151_" x="31" y="45" class="st0" width="24" height="4"/>
</g>
<g id="XMLID_1091_">
	<path id="XMLID_146_" class="st0" d="M54,100v2H32v-2H54 M55,99H31v4h24V99L55,99z"/>
</g>
<g id="XMLID_1090_">
	<path id="XMLID_142_" class="st0" d="M54,116v2H32v-2H54 M55,115H31v4h24V115L55,115z"/>
</g>
<g id="XMLID_1089_">
	<path id="XMLID_138_" class="st0" d="M54,132v2H32v-2H54 M55,131H31v4h24V131L55,131z"/>
</g>
<g id="XMLID_1086_">
	<rect id="XMLID_137_" x="137" y="7" class="st0" width="32" height="4"/>
</g>
<g id="XMLID_1085_">
	<path id="XMLID_132_" class="st0" d="M168,16v38h-22V16H168 M169,15h-24v40h24V15L169,15z"/>
</g>
<g id="XMLID_1084_">
	<path id="XMLID_128_" class="st0" d="M140,16v38h-2V16H140 M141,15h-4v40h4V15L141,15z"/>
</g>
<g id="XMLID_1082_">
	<path id="XMLID_124_" class="st0" d="M278,8v2h-30V8H278 M279,7h-32v4h32V7L279,7z"/>
</g>
<g id="XMLID_1081_">
	<path id="XMLID_120_" class="st0" d="M273,21v20h-20V21H273 M274,20h-22v22h22V20L274,20z"/>
</g>
<g id="XMLID_1080_">
	<path id="XMLID_116_" class="st0" d="M259,47v2h-6v-2H259 M260,46h-8v4h8V46L260,46z"/>
</g>
<g id="XMLID_1079_">
	<rect id="XMLID_115_" x="266" y="46" class="st0" width="8" height="4"/>
</g>
<g id="XMLID_1078_">
	<path id="XMLID_110_" class="st0" d="M278,16v38h-30V16H278 M279,15h-32v40h32V15L279,15z"/>
</g>
<g id="XMLID_1076_">
	<path id="XMLID_106_" class="st0" d="M388,8v2h-18V8H388 M389,7h-20v4h20V7L389,7z"/>
</g>
<g id="XMLID_1075_">
	<path id="XMLID_102_" class="st0" d="M376,52v2h-6v-2H376 M377,51h-8v4h8V51L377,51z"/>
</g>
<g id="XMLID_1074_">
	<path id="XMLID_98_" class="st0" d="M388,16v2h-30v-2H388 M389,15h-32v4h32V15L389,15z"/>
</g>
<g id="XMLID_1073_">
	<path id="XMLID_95_" class="st0" d="M364,52v2h-6v-2H364 M365,51h-8v4h8V51L365,51z"/>
</g>
<g id="XMLID_1072_">
	<path id="XMLID_90_" class="st0" d="M388,52v2h-6v-2H388 M389,51h-8v4h8V51L389,51z"/>
</g>
<g id="XMLID_1071_">
	<path id="XMLID_86_" class="st0" d="M388,24v22h-30V24H388 M389,23h-32v24h32V23L389,23z"/>
</g>
<g id="XMLID_1070_">
	<rect id="XMLID_85_" x="357" y="7" class="st0" width="8" height="4"/>
</g>
<g id="XMLID_1066_">
	<path id="XMLID_80_" class="st0" d="M388,94v2h-30v-2H388 M389,93h-32v4h32V93L389,93z"/>
</g>
<g id="XMLID_1065_">
	<path id="XMLID_76_" class="st0" d="M388,138v2h-22v-2H388 M389,137h-24v4h24V137L389,137z"/>
</g>
<g id="XMLID_1052_">
	<path id="XMLID_72_" class="st0" d="M388,130v2h-22v-2H388 M389,129h-24v4h24V129L389,129z"/>
</g>
<g id="XMLID_1051_">
	<path id="XMLID_68_" class="st0" d="M374,102v8h-8v-8H374 M375,101h-10v10h10V101L375,101z"/>
</g>
<g id="XMLID_1050_">
	<path id="XMLID_64_" class="st0" d="M388,102v8h-8v-8H388 M389,101h-10v10h10V101L389,101z"/>
</g>
<g id="XMLID_1045_">
	<path id="XMLID_60_" class="st0" d="M374,116v8h-8v-8H374 M375,115h-10v10h10V115L375,115z"/>
</g>
<g id="XMLID_1012_">
	<rect id="XMLID_59_" x="379" y="115" class="st0" width="10" height="10"/>
</g>
<g id="XMLID_1005_">
	<path id="XMLID_54_" class="st0" d="M360,102v38h-2v-38H360 M361,101h-4v40h4V101L361,101z"/>
</g>
<g id="XMLID_993_">
	<path id="XMLID_50_" class="st0" d="M278,94v2h-30v-2H278 M279,93h-32v4h32V93L279,93z"/>
</g>
<g id="XMLID_979_">
	<path id="XMLID_46_" class="st0" d="M273,110v2h-14v-2H273 M274,109h-16v4h16V109L274,109z"/>
</g>
<g id="XMLID_978_">
	<path id="XMLID_42_" class="st0" d="M255,110v2h-2v-2H255 M256,109h-4v4h4V109L256,109z"/>
</g>
<g id="XMLID_954_">
	<rect id="XMLID_41_" x="258" y="119" class="st0" width="16" height="4"/>
</g>
<g id="XMLID_915_">
	<path id="XMLID_36_" class="st0" d="M255,120v2h-2v-2H255 M256,119h-4v4h4V119L256,119z"/>
</g>
<g id="XMLID_875_">
	<path id="XMLID_32_" class="st0" d="M273,130v2h-14v-2H273 M274,129h-16v4h16V129L274,129z"/>
</g>
<g id="XMLID_874_">
	<path id="XMLID_28_" class="st0" d="M255,130v2h-2v-2H255 M256,129h-4v4h4V129L256,129z"/>
</g>
<g id="XMLID_858_">
	<path id="XMLID_24_" class="st0" d="M278,102v38h-30v-38H278 M279,101h-32v40h32V101L279,101z"/>
</g>
<g id="XMLID_651_">
	<rect id="XMLID_23_" x="137" y="93" class="st0" width="20" height="4"/>
</g>
<g id="XMLID_652_">
	<path id="XMLID_18_" class="st0" d="M168,94v2h-6v-2H168 M169,93h-8v4h8V93L169,93z"/>
</g>
<g id="XMLID_653_">
	<path id="XMLID_14_" class="st0" d="M168,102v38h-30v-38H168 M169,101h-32v40h32V101L169,101z"/>
</g>
<rect id="XMLID_655_" x="146" y="110" class="st0" width="14" height="1"/>
<rect id="XMLID_656_" x="146" y="113" class="st0" width="14" height="1"/>
<rect id="XMLID_657_" x="146" y="119" class="st0" width="14" height="1"/>
<rect id="XMLID_658_" x="146" y="122" class="st0" width="14" height="1"/>
<rect id="XMLID_659_" x="146" y="125" class="st0" width="8" height="1"/>
<rect id="XMLID_660_" x="146" y="128" class="st0" width="14" height="1"/>
<rect id="XMLID_661_" x="146" y="131" class="st0" width="14" height="1"/>
<rect id="XMLID_663_" x="146" y="116" class="st0" width="8" height="1"/>
</svg>
